<svg id="Layer_1" height="512" viewBox="0 0 150 150" width="512" xmlns="http://www.w3.org/2000/svg" data-name="Layer 1"><circle cx="75" cy="75" fill="#2f4859" r="64"/><path d="m76.03 45.72h-2.06l-.88 57.53h3.82z" fill="#fcd462"/><path d="m75 43.54a2.57 2.57 0 1 0 2.57 2.57 2.57 2.57 0 0 0 -2.57-2.57z" fill="#f7be56"/><path d="m90.36 100.56h-30.72a2.93 2.93 0 0 0 -2.93 2.93v3h36.58v-3a2.93 2.93 0 0 0 -2.93-2.93z" fill="#f7be56"/><path d="m110.47 52.05a14.23 14.23 0 0 0 -4.93-1.05 18.73 18.73 0 0 0 -5 .62c-3.21.79-6.24 1.87-9.3 2.86a19.06 19.06 0 0 1 -4.43 1 13.64 13.64 0 0 1 -4.35-.48 13.16 13.16 0 0 1 -4-1.88 15.31 15.31 0 0 1 -1.73-1.37 13.9 13.9 0 0 1 -1.43-1.55v-.06-.06 4l.28.22-.28.25-.36-.32.06-.23v-4l-.06.06v.06a12.91 12.91 0 0 1 -1.45 1.56 15.31 15.31 0 0 1 -1.73 1.37 13.39 13.39 0 0 1 -4 1.88 13.67 13.67 0 0 1 -4.37.45 19.06 19.06 0 0 1 -4.43-1c-3.06-1-6.1-2.07-9.3-2.86a18.73 18.73 0 0 0 -5-.62 14.18 14.18 0 0 0 -4.93 1.07.66.66 0 0 0 -.37.86.67.67 0 0 0 .83.38 13.15 13.15 0 0 1 4.48-.8 17.4 17.4 0 0 1 4.54.76c3 .87 6 2.06 9 3.17a24.37 24.37 0 0 0 2.37.79 7.33 7.33 0 0 0 1.23.29c8.1 2.43 12-.54 13.35-1.92 1.33 1.5 5.35 4.5 13.67 1.91a4.76 4.76 0 0 0 .74-.2 23.7 23.7 0 0 0 2.43-.79c3-1.11 6-2.3 9-3.17a17.54 17.54 0 0 1 4.54-.76 13.07 13.07 0 0 1 4.48.8.67.67 0 0 0 .84-.38.66.66 0 0 0 -.39-.86z" fill="#fcd462"/><path d="m123.38 79.49a.47.47 0 0 1 -.42-.25l-13.32-25.43-13.32 25.43a.47.47 0 1 1 -.84-.44l13.74-26.24a.5.5 0 0 1 .84 0l13.74 26.24a.48.48 0 0 1 -.2.64z" fill="#ebf0f3"/><path d="m109.64 79.89a.47.47 0 0 1 -.47-.47v-26.64a.47.47 0 0 1 .94 0v26.64a.47.47 0 0 1 -.47.47z" fill="#ebf0f3"/><path d="m95.9 79a13.75 13.75 0 0 0 27.48 0z" fill="#f7be56"/><path d="m123.71 78.38h-28.14a1 1 0 0 0 0 2.08h28.14a1 1 0 0 0 0-2.08z" fill="#fcd462"/><path d="m54.1 79.49a.47.47 0 0 1 -.42-.25l-13.32-25.43-13.36 25.43a.47.47 0 0 1 -.84-.44l13.78-26.24a.5.5 0 0 1 .84 0l13.74 26.24a.48.48 0 0 1 -.2.64z" fill="#ebf0f3"/><path d="m40.36 79.89a.47.47 0 0 1 -.47-.47v-26.64a.47.47 0 0 1 .94 0v26.64a.47.47 0 0 1 -.47.47z" fill="#ebf0f3"/><path d="m26.62 79a13.75 13.75 0 0 0 27.48 0z" fill="#f7be56"/><path d="m54.43 78.38h-28.14a1 1 0 0 0 0 2.08h28.14a1 1 0 0 0 0-2.08z" fill="#fcd462"/></svg>