<?xml version="1.0" standalone="no"?>
<!DOCTYPE svg PUBLIC "-//W3C//DTD SVG 20010904//EN"
 "http://www.w3.org/TR/2001/REC-SVG-20010904/DTD/svg10.dtd">
<svg version="1.0" xmlns="http://www.w3.org/2000/svg"
 width="700.000000pt" height="700.000000pt" viewBox="0 0 700.000000 700.000000"
 preserveAspectRatio="xMidYMid meet">
<metadata>
Created by potrace 1.11, written by Peter Selinger 2001-2013
</metadata>
<g transform="translate(0.000000,700.000000) scale(0.100000,-0.100000)"
fill="#000000" stroke="none">
<path d="M3429 6661 c-61 -20 -110 -63 -139 -126 -18 -41 -25 -82 -35 -240 -4
-49 -8 -112 -10 -140 -2 -27 -7 -97 -10 -155 -7 -109 -13 -161 -20 -169 -5 -4
-67 17 -265 89 -63 23 -146 52 -185 65 -65 21 -93 28 -230 54 -73 14 -307 6
-400 -14 -458 -97 -814 -423 -944 -865 -77 -261 -196 -403 -407 -486 -92 -36
-147 -75 -184 -129 -123 -179 -61 -402 137 -492 73 -34 163 -35 251 -3 35 12
65 20 68 18 2 -3 -14 -58 -35 -124 -21 -65 -67 -207 -101 -314 -33 -107 -69
-217 -78 -245 -9 -27 -17 -54 -18 -60 -2 -5 -21 -66 -43 -135 -54 -170 -127
-396 -161 -505 -16 -49 -47 -147 -69 -217 -231 -725 -223 -698 -222 -767 1
-35 3 -66 5 -70 3 -3 7 -25 11 -48 9 -64 51 -179 91 -252 155 -282 467 -464
779 -455 245 7 458 101 621 273 94 100 150 191 193 318 37 109 43 139 47 229
2 61 -3 90 -37 195 -22 68 -49 151 -59 184 -10 33 -69 218 -130 410 -171 535
-172 539 -177 561 -4 18 1 23 29 28 39 7 112 65 132 105 7 14 16 43 20 64 l7
37 -88 1 c-48 0 -107 1 -131 1 -52 0 -41 -22 -125 248 -70 221 -192 608 -207
652 -8 24 -4 30 48 71 201 158 355 383 433 632 57 184 82 234 156 318 128 145
357 220 544 178 44 -10 203 -63 244 -81 11 -5 72 -27 135 -50 63 -22 124 -44
135 -49 11 -5 55 -21 97 -36 43 -15 76 -30 74 -34 -2 -3 -7 -49 -10 -101 -6
-90 -9 -140 -21 -305 -3 -38 -7 -104 -10 -145 -3 -41 -7 -104 -10 -140 -7
-103 -15 -220 -20 -290 -2 -36 -7 -105 -11 -155 -7 -99 -9 -134 -18 -275 -4
-52 -9 -120 -11 -150 -2 -30 -7 -95 -10 -145 -3 -49 -8 -112 -10 -140 -2 -27
-7 -93 -10 -145 -3 -52 -8 -115 -10 -140 -3 -42 -10 -142 -20 -290 -3 -36 -7
-101 -10 -145 -3 -44 -7 -109 -10 -145 -12 -152 -28 -387 -28 -422 -1 -21 -6
-28 -21 -29 -117 -4 -244 -96 -287 -207 -20 -51 -22 -77 -23 -252 l-1 -194
-38 -8 c-82 -17 -140 -68 -166 -145 -14 -41 -16 -105 -15 -438 l0 -390 1094 0
1094 0 0 395 c-1 431 -2 444 -57 507 -34 38 -97 72 -134 73 -13 0 -24 3 -24 8
-1 4 -2 93 -4 197 -2 167 -5 197 -24 246 -39 101 -147 187 -256 205 -22 3 -42
8 -44 10 -5 5 -8 36 -16 157 -9 148 -14 212 -21 302 -3 44 -7 103 -9 130 -9
150 -16 254 -20 290 -2 22 -7 90 -10 150 -4 61 -8 126 -10 145 -2 19 -6 78
-10 130 -3 52 -8 118 -10 146 -2 28 -7 91 -10 140 -9 147 -13 205 -19 284 -3
41 -8 111 -11 155 -3 44 -8 109 -11 145 -2 36 -6 94 -9 130 -13 215 -16 259
-20 295 -2 22 -7 85 -10 140 -3 55 -8 125 -10 155 -15 193 -27 365 -29 420 -1
35 0 35 58 50 l59 15 116 150 c186 240 260 310 396 378 122 61 196 79 335 83
171 5 295 -25 429 -102 43 -25 151 -106 196 -147 44 -40 161 -103 289 -156 22
-9 26 -14 17 -25 -10 -12 -34 -82 -99 -286 -18 -57 -98 -310 -181 -570 l-27
-85 -122 -1 c-67 -1 -127 -2 -133 -3 -17 -2 -1 -67 26 -111 30 -48 67 -77 116
-92 43 -12 46 -20 25 -75 -8 -21 -60 -182 -116 -358 -55 -176 -112 -354 -126
-395 -14 -41 -27 -82 -29 -90 -2 -9 -21 -72 -43 -140 -87 -270 -84 -260 -78
-335 20 -258 161 -501 378 -652 340 -238 812 -195 1109 99 116 115 194 254
235 417 28 114 32 198 11 266 -8 28 -63 201 -122 385 -59 184 -122 382 -140
440 -68 215 -99 311 -177 555 -43 138 -94 297 -113 355 -117 370 -160 504
-181 570 -13 41 -24 77 -24 80 0 3 48 4 107 3 119 -2 217 13 335 53 61 20 87
35 128 75 73 71 104 143 104 240 0 66 -5 86 -32 142 -18 36 -47 78 -65 92 -18
15 -40 33 -49 41 -10 7 -44 23 -76 33 -68 23 -146 21 -224 -5 -65 -22 -160
-22 -225 0 -27 9 -80 41 -118 72 -159 128 -216 165 -361 234 -75 36 -238 91
-309 105 -146 29 -400 40 -495 21 -14 -3 -43 -7 -64 -11 -248 -37 -540 -180
-736 -362 l-70 -65 -1 44 c-2 75 -15 236 -23 275 -12 58 -65 123 -126 152 -39
19 -129 25 -171 12z m2381 -1585 c0 -7 29 -102 64 -212 35 -109 94 -293 131
-409 141 -443 198 -620 202 -627 2 -5 -11 -6 -29 -4 -18 2 -62 4 -98 5 l-66 1
-43 268 c-24 147 -45 278 -47 292 -12 80 -38 196 -44 200 -5 3 -60 5 -124 4
-81 -1 -116 2 -116 10 0 6 13 52 29 101 15 50 50 158 76 242 27 84 52 150 57
147 4 -3 8 -11 8 -18z m-290 -1131 c29 -58 51 -107 49 -109 -7 -7 -179 -14
-179 -7 0 3 14 49 31 101 17 52 32 101 34 108 3 6 6 12 8 12 3 0 28 -47 57
-105z m-4225 -440 c31 -99 60 -190 66 -203 l9 -23 -92 1 c-51 1 -109 1 -129 1
l-37 -1 -17 -97 c-10 -54 -19 -106 -21 -117 -2 -10 -6 -37 -8 -60 -6 -40 -10
-65 -22 -136 -4 -19 -8 -48 -10 -65 -2 -16 -6 -37 -9 -45 -2 -8 -7 -37 -11
-65 -3 -27 -12 -79 -18 -114 l-12 -65 -85 -1 c-47 -1 -91 -5 -97 -9 -8 -5 -9
1 -2 21 10 30 109 344 215 678 35 110 82 259 105 330 23 72 51 159 62 195 l21
65 17 -55 c10 -30 44 -136 75 -235z m280 -875 c15 -52 30 -100 32 -107 3 -9
-20 -11 -86 -10 -50 1 -91 6 -91 10 0 18 105 216 111 209 3 -4 18 -50 34 -102z"/>
</g>
</svg>
